# xmcd
#
# Track frame offsets:
#	150
#	2330
#	32046
#	47671
#	68098
#	86870
#	106766
#	122529
#	124157
#	138372
#	149503
#	172213
#	183654
#	193056
#	225429
#
# Disc length: 3085 seconds
#
# Revision: 0
# Processed by: cddbd v1.5.2PL0 Copyright (c) Steve Scherf et al.
# Submitted via: audiograbber 1.83.01
#
DISCID=ce0c0b0f
DTITLE=Various Artist - Searching For The Wrong Eyed Jesus OST
DYEAR=2005
DGENRE=Soundtrack
TTITLE0=Harry Crews - Everything Was Stories
TTITLE1=Jim White - Still Waters
TTITLE2=Handsome Family - My Sister's Tiny Hands
TTITLE3=Cat Power - Crossbone Style
TTITLE4=David Johansen and Larry Saltzman - The Last Kind Words
TTITLE5=Jim White - The Wound That Never Heals
TTITLE6=David Eugene Edwards - Wayfaring Stranger
TTITLE7=Mayor - Small Town
TTITLE8=16 Horsepower - Black Soul Choir
TTITLE9=Lee Sexton - Little Maggie
TTITLE10=Johnny Dowd with Maggie Brown - First There Was
TTITLE11=Clarence Ashley and Doc Watson - Coo Coo Bird
TTITLE12=Mellissa Swingle - Amazing Grace
TTITLE13=Jim White - Christmas Day
TTITLE14=Jim White - Essential Truth
EXTD=
EXTT0=
EXTT1=
EXTT2=
EXTT3=
EXTT4=
EXTT5=
EXTT6=
EXTT7=
EXTT8=
EXTT9=
EXTT10=
EXTT11=
EXTT12=
EXTT13=
EXTT14=
PLAYORDER=
